<?xml version="1.0" encoding="UTF-8" standalone="no"?>
<!DOCTYPE svg PUBLIC "-//W3C//DTD SVG 1.1//EN"
 "http://www.w3.org/Graphics/SVG/1.1/DTD/svg11.dtd">
<!-- Generated by graphviz version 2.42.4 (0)
 -->
<!-- Title: G Pages: 1 -->
<svg width="752pt" height="564pt"
 viewBox="0.00 0.00 751.58 563.71" xmlns="http://www.w3.org/2000/svg" xmlns:xlink="http://www.w3.org/1999/xlink">
<g id="graph0" class="graph" transform="scale(1 1) rotate(0) translate(18 545.71)">
<title>G</title>
<polygon fill="white" stroke="transparent" points="-18,18 -18,-545.71 733.58,-545.71 733.58,18 -18,18"/>
<g id="clust1" class="cluster">
<title>cluster_actors</title>
<path fill="white" stroke="black" d="M20,-179.71C20,-179.71 129,-179.71 129,-179.71 135,-179.71 141,-185.71 141,-191.71 141,-191.71 141,-322.71 141,-322.71 141,-328.71 135,-334.71 129,-334.71 129,-334.71 20,-334.71 20,-334.71 14,-334.71 8,-328.71 8,-322.71 8,-322.71 8,-191.71 8,-191.71 8,-185.71 14,-179.71 20,-179.71"/>
<text text-anchor="middle" x="74.5" y="-319.51" font-family="Arial" font-size="14.00">External Actors</text>
</g>
<g id="clust2" class="cluster">
<title>cluster_system</title>
<path fill="white" stroke="black" d="M290,-191.71C290,-191.71 490.58,-191.71 490.58,-191.71 496.58,-191.71 502.58,-197.71 502.58,-203.71 502.58,-203.71 502.58,-507.71 502.58,-507.71 502.58,-513.71 496.58,-519.71 490.58,-519.71 490.58,-519.71 290,-519.71 290,-519.71 284,-519.71 278,-513.71 278,-507.71 278,-507.71 278,-203.71 278,-203.71 278,-197.71 284,-191.71 290,-191.71"/>
<text text-anchor="middle" x="390.29" y="-504.51" font-family="Arial" font-size="14.00">FirstCommit System</text>
</g>
<g id="clust3" class="cluster">
<title>cluster_stores</title>
<path fill="white" stroke="black" d="M609.58,-185.71C609.58,-185.71 695.58,-185.71 695.58,-185.71 701.58,-185.71 707.58,-191.71 707.58,-197.71 707.58,-197.71 707.58,-464.71 707.58,-464.71 707.58,-470.71 701.58,-476.71 695.58,-476.71 695.58,-476.71 609.58,-476.71 609.58,-476.71 603.58,-476.71 597.58,-470.71 597.58,-464.71 597.58,-464.71 597.58,-197.71 597.58,-197.71 597.58,-191.71 603.58,-185.71 609.58,-185.71"/>
<text text-anchor="middle" x="652.58" y="-461.51" font-family="Arial" font-size="14.00">Data Stores</text>
</g>
<!-- learner -->
<g id="node1" class="node">
<title>learner</title>
<path fill="none" stroke="black" stroke-width="1.3" d="M89.5,-297.71C89.5,-297.71 59.5,-297.71 59.5,-297.71 53.5,-297.71 47.5,-291.71 47.5,-285.71 47.5,-285.71 47.5,-273.71 47.5,-273.71 47.5,-267.71 53.5,-261.71 59.5,-261.71 59.5,-261.71 89.5,-261.71 89.5,-261.71 95.5,-261.71 101.5,-267.71 101.5,-273.71 101.5,-273.71 101.5,-285.71 101.5,-285.71 101.5,-291.71 95.5,-297.71 89.5,-297.71"/>
<text text-anchor="middle" x="74.5" y="-276.91" font-family="Arial" font-size="11.00">Learner</text>
</g>
<!-- p1 -->
<g id="node3" class="node">
<title>p1</title>
<ellipse fill="none" stroke="black" stroke-width="1.3" cx="390.29" cy="-459.71" rx="54.39" ry="22.76"/>
<text text-anchor="middle" x="390.29" y="-462.91" font-family="Arial" font-size="11.00">1.0</text>
<text text-anchor="middle" x="390.29" y="-450.91" font-family="Arial" font-size="11.00">User Access</text>
</g>
<!-- learner&#45;&gt;p1 -->
<g id="edge1" class="edge">
<title>learner&#45;&gt;p1</title>
<path fill="none" stroke="black" stroke-width="1.1" d="M78.75,-297.96C85.52,-330.21 104.41,-396.85 149,-428.71 201.68,-466.35 277.88,-469.93 330.28,-466.81"/>
<polygon fill="black" stroke="black" stroke-width="1.1" points="330.52,-469.42 337.83,-466.3 330.17,-464.18 330.52,-469.42"/>
<text text-anchor="middle" x="209.5" y="-468.51" font-family="Arial" font-size="9.00">Credentials</text>
</g>
<!-- p2 -->
<g id="node4" class="node">
<title>p2</title>
<ellipse fill="none" stroke="black" stroke-width="1.3" cx="390.29" cy="-305.71" rx="75.82" ry="22.76"/>
<text text-anchor="middle" x="390.29" y="-308.91" font-family="Arial" font-size="11.00">2.0</text>
<text text-anchor="middle" x="390.29" y="-296.91" font-family="Arial" font-size="11.00">Manage Scenarios</text>
</g>
<!-- learner&#45;&gt;p2 -->
<g id="edge4" class="edge">
<title>learner&#45;&gt;p2</title>
<path fill="none" stroke="black" stroke-width="1.1" d="M101.71,-281.88C146.89,-285.62 241.12,-293.43 309.43,-299.09"/>
<polygon fill="black" stroke="black" stroke-width="1.1" points="309.52,-301.73 317.21,-299.74 309.96,-296.5 309.52,-301.73"/>
<text text-anchor="middle" x="209.5" y="-298.51" font-family="Arial" font-size="9.00">Scenario request</text>
</g>
<!-- p3 -->
<g id="node5" class="node">
<title>p3</title>
<ellipse fill="none" stroke="black" stroke-width="1.3" cx="390.29" cy="-382.71" rx="80.72" ry="22.76"/>
<text text-anchor="middle" x="390.29" y="-385.91" font-family="Arial" font-size="11.00">3.0</text>
<text text-anchor="middle" x="390.29" y="-373.91" font-family="Arial" font-size="11.00">Investigate Scenario</text>
</g>
<!-- learner&#45;&gt;p3 -->
<g id="edge9" class="edge">
<title>learner&#45;&gt;p3</title>
<path fill="none" stroke="black" stroke-width="1.1" d="M92.45,-297.86C106.31,-311.56 127.15,-329.67 149,-339.71 197.34,-361.93 256.05,-372.7 303.34,-377.9"/>
<polygon fill="black" stroke="black" stroke-width="1.1" points="303.09,-380.51 310.82,-378.69 303.64,-375.29 303.09,-380.51"/>
<text text-anchor="middle" x="209.5" y="-375.51" font-family="Arial" font-size="9.00">Actions &amp; observations</text>
</g>
<!-- p4 -->
<g id="node6" class="node">
<title>p4</title>
<ellipse fill="none" stroke="black" stroke-width="1.3" cx="390.29" cy="-228.71" rx="98.08" ry="22.76"/>
<text text-anchor="middle" x="390.29" y="-231.91" font-family="Arial" font-size="11.00">4.0</text>
<text text-anchor="middle" x="390.29" y="-219.91" font-family="Arial" font-size="11.00">Review &amp; Track Progress</text>
</g>
<!-- learner&#45;&gt;p4 -->
<g id="edge13" class="edge">
<title>learner&#45;&gt;p4</title>
<path fill="none" stroke="black" stroke-width="1.1" d="M101.54,-273.02C115.68,-267.96 132.06,-259.46 141,-245.71 148.89,-233.58 138.46,-125.62 149,-115.71 188.18,-78.87 220.04,-95.8 270,-115.71 312.38,-132.59 348.36,-172.47 369.4,-200.03"/>
<polygon fill="black" stroke="black" stroke-width="1.1" points="367.31,-201.63 373.91,-206.06 371.51,-198.48 367.31,-201.63"/>
<text text-anchor="middle" x="209.5" y="-118.51" font-family="Arial" font-size="9.00">Reasoning / progress request</text>
</g>
<!-- mentor -->
<g id="node2" class="node">
<title>mentor</title>
<path fill="none" stroke="black" stroke-width="1.3" d="M115,-229.71C115,-229.71 34,-229.71 34,-229.71 28,-229.71 22,-223.71 22,-217.71 22,-217.71 22,-205.71 22,-205.71 22,-199.71 28,-193.71 34,-193.71 34,-193.71 115,-193.71 115,-193.71 121,-193.71 127,-199.71 127,-205.71 127,-205.71 127,-217.71 127,-217.71 127,-223.71 121,-229.71 115,-229.71"/>
<text text-anchor="middle" x="74.5" y="-208.91" font-family="Arial" font-size="11.00">Mentor / Reviewer</text>
</g>
<!-- mentor&#45;&gt;p2 -->
<g id="edge5" class="edge">
<title>mentor&#45;&gt;p2</title>
<path fill="none" stroke="black" stroke-width="1.1" d="M95.65,-193.49C109.54,-182.21 129.04,-168.75 149,-162.71 200.47,-147.13 230.56,-126.16 270,-162.71 287.16,-178.62 263.67,-249.21 278,-267.71 287.15,-279.53 300.18,-287.7 314.11,-293.34"/>
<polygon fill="black" stroke="black" stroke-width="1.1" points="313.52,-295.92 321.46,-296.06 315.34,-290.99 313.52,-295.92"/>
<text text-anchor="middle" x="209.5" y="-165.51" font-family="Arial" font-size="9.00">Scenario updates</text>
</g>
<!-- mentor&#45;&gt;p4 -->
<g id="edge14" class="edge">
<title>mentor&#45;&gt;p4</title>
<path fill="none" stroke="black" stroke-width="1.1" d="M76.17,-193.56C78.73,-154.24 90.94,-61.5 149,-21.71 193.36,8.69 223.44,5.2 270,-21.71 336.34,-60.04 369.05,-150.83 382.12,-198.42"/>
<polygon fill="black" stroke="black" stroke-width="1.1" points="379.66,-199.37 384.13,-205.95 384.73,-198.02 379.66,-199.37"/>
<text text-anchor="middle" x="209.5" y="-24.51" font-family="Arial" font-size="9.00">Review</text>
</g>
<!-- p1&#45;&gt;learner -->
<g id="edge2" class="edge">
<title>p1&#45;&gt;learner</title>
<path fill="none" stroke="black" stroke-width="1.1" d="M353.81,-476.63C303.42,-497.93 210.4,-526.85 149,-483.71 90.59,-442.67 78.39,-350.51 75.98,-305.47"/>
<polygon fill="black" stroke="black" stroke-width="1.1" points="78.6,-305.27 75.65,-297.89 73.36,-305.5 78.6,-305.27"/>
<text text-anchor="middle" x="209.5" y="-508.51" font-family="Arial" font-size="9.00">Access result</text>
</g>
<!-- d1 -->
<g id="node7" class="node">
<title>d1</title>
<path fill="none" stroke="black" stroke-width="1.3" d="M683.58,-436.44C683.58,-438.24 669.68,-439.71 652.58,-439.71 635.47,-439.71 621.58,-438.24 621.58,-436.44 621.58,-436.44 621.58,-406.98 621.58,-406.98 621.58,-405.18 635.47,-403.71 652.58,-403.71 669.68,-403.71 683.58,-405.18 683.58,-406.98 683.58,-406.98 683.58,-436.44 683.58,-436.44"/>
<path fill="none" stroke="black" stroke-width="1.3" d="M683.58,-436.44C683.58,-434.63 669.68,-433.16 652.58,-433.16 635.47,-433.16 621.58,-434.63 621.58,-436.44"/>
<text text-anchor="middle" x="652.58" y="-418.91" font-family="Arial" font-size="11.00">D1 Users</text>
</g>
<!-- p1&#45;&gt;d1 -->
<g id="edge3" class="edge">
<title>p1&#45;&gt;d1</title>
<path fill="none" stroke="black" stroke-width="1.1" d="M449.47,-451.22C499.77,-443.87 570.99,-433.47 614.08,-427.18"/>
<polygon fill="black" stroke="black" stroke-width="1.1" points="448.82,-448.66 441.78,-452.34 449.58,-453.85 448.82,-448.66"/>
<polygon fill="black" stroke="black" stroke-width="1.1" points="614.48,-429.78 621.52,-426.1 613.72,-424.58 614.48,-429.78"/>
<text text-anchor="middle" x="550.08" y="-444.51" font-family="Arial" font-size="9.00">User data</text>
</g>
<!-- p2&#45;&gt;learner -->
<g id="edge7" class="edge">
<title>p2&#45;&gt;learner</title>
<path fill="none" stroke="black" stroke-width="1.1" d="M323.73,-316.57C274.96,-322.57 207.09,-326.49 149,-313.71 135.23,-310.68 120.96,-304.8 108.71,-298.78"/>
<polygon fill="black" stroke="black" stroke-width="1.1" points="109.61,-296.29 101.74,-295.23 107.23,-300.97 109.61,-296.29"/>
<text text-anchor="middle" x="209.5" y="-324.51" font-family="Arial" font-size="9.00">Scenario</text>
</g>
<!-- p2&#45;&gt;mentor -->
<g id="edge8" class="edge">
<title>p2&#45;&gt;mentor</title>
<path fill="none" stroke="black" stroke-width="1.1" d="M322.93,-295.18C306.21,-289.56 289.71,-280.93 278,-267.71 266.56,-254.79 282.89,-241.19 270,-229.71 233.81,-197.47 177.41,-195.62 134.64,-200.27"/>
<polygon fill="black" stroke="black" stroke-width="1.1" points="134.23,-197.68 127.09,-201.17 134.85,-202.89 134.23,-197.68"/>
<text text-anchor="middle" x="209.5" y="-232.51" font-family="Arial" font-size="9.00">Status</text>
</g>
<!-- d2 -->
<g id="node8" class="node">
<title>d2</title>
<path fill="none" stroke="black" stroke-width="1.3" d="M693.58,-368.44C693.58,-370.24 675.2,-371.71 652.58,-371.71 629.95,-371.71 611.58,-370.24 611.58,-368.44 611.58,-368.44 611.58,-338.98 611.58,-338.98 611.58,-337.18 629.95,-335.71 652.58,-335.71 675.2,-335.71 693.58,-337.18 693.58,-338.98 693.58,-338.98 693.58,-368.44 693.58,-368.44"/>
<path fill="none" stroke="black" stroke-width="1.3" d="M693.58,-368.44C693.58,-366.63 675.2,-365.16 652.58,-365.16 629.95,-365.16 611.58,-366.63 611.58,-368.44"/>
<text text-anchor="middle" x="652.58" y="-350.91" font-family="Arial" font-size="11.00">D2 Scenarios</text>
</g>
<!-- p2&#45;&gt;d2 -->
<g id="edge6" class="edge">
<title>p2&#45;&gt;d2</title>
<path fill="none" stroke="black" stroke-width="1.1" d="M458.97,-291.26C499.25,-286.21 550.05,-286.3 589.58,-307.71 595.21,-310.76 592.98,-315.24 597.58,-319.71 602.2,-324.21 607.51,-328.42 612.96,-332.24"/>
<polygon fill="black" stroke="black" stroke-width="1.1" points="458.4,-288.69 451.32,-292.3 459.1,-293.89 458.4,-288.69"/>
<polygon fill="black" stroke="black" stroke-width="1.1" points="611.69,-334.56 619.38,-336.55 614.61,-330.19 611.69,-334.56"/>
<text text-anchor="middle" x="550.08" y="-310.51" font-family="Arial" font-size="9.00">Scenario data</text>
</g>
<!-- p3&#45;&gt;learner -->
<g id="edge12" class="edge">
<title>p3&#45;&gt;learner</title>
<path fill="none" stroke="black" stroke-width="1.1" d="M335.18,-399.29C284.03,-411.69 206.73,-421.72 149,-390.71 115.5,-372.71 94.7,-332 84.11,-305.2"/>
<polygon fill="black" stroke="black" stroke-width="1.1" points="86.51,-304.12 81.4,-298.04 81.6,-305.99 86.51,-304.12"/>
<text text-anchor="middle" x="209.5" y="-413.51" font-family="Arial" font-size="9.00">Next&#45;step context</text>
</g>
<!-- d3 -->
<g id="node9" class="node">
<title>d3</title>
<path fill="none" stroke="black" stroke-width="1.3" d="M690.58,-300.44C690.58,-302.24 673.54,-303.71 652.58,-303.71 631.61,-303.71 614.58,-302.24 614.58,-300.44 614.58,-300.44 614.58,-270.98 614.58,-270.98 614.58,-269.18 631.61,-267.71 652.58,-267.71 673.54,-267.71 690.58,-269.18 690.58,-270.98 690.58,-270.98 690.58,-300.44 690.58,-300.44"/>
<path fill="none" stroke="black" stroke-width="1.3" d="M690.58,-300.44C690.58,-298.63 673.54,-297.16 652.58,-297.16 631.61,-297.16 614.58,-298.63 614.58,-300.44"/>
<text text-anchor="middle" x="652.58" y="-282.91" font-family="Arial" font-size="11.00">D3 Attempts</text>
</g>
<!-- p3&#45;&gt;d3 -->
<g id="edge11" class="edge">
<title>p3&#45;&gt;d3</title>
<path fill="none" stroke="black" stroke-width="1.1" d="M456.78,-364.75C495.94,-353.23 546.33,-337.03 589.58,-318.71 598,-315.14 606.8,-310.83 615.05,-306.52"/>
<polygon fill="black" stroke="black" stroke-width="1.1" points="455.57,-362.37 449.1,-366.99 457.04,-367.41 455.57,-362.37"/>
<polygon fill="black" stroke="black" stroke-width="1.1" points="616.44,-308.76 621.82,-302.92 613.97,-304.12 616.44,-308.76"/>
<text text-anchor="middle" x="550.08" y="-348.51" font-family="Arial" font-size="9.00">Attempt state</text>
</g>
<!-- p4&#45;&gt;learner -->
<g id="edge17" class="edge">
<title>p4&#45;&gt;learner</title>
<path fill="none" stroke="black" stroke-width="1.1" d="M309.46,-241.65C262.7,-249.23 202.5,-259 149,-267.71 136,-269.83 121.71,-272.16 109.21,-274.2"/>
<polygon fill="black" stroke="black" stroke-width="1.1" points="108.67,-271.63 101.69,-275.43 109.52,-276.81 108.67,-271.63"/>
<text text-anchor="middle" x="209.5" y="-270.51" font-family="Arial" font-size="9.00">Feedback / progress</text>
</g>
<!-- p4&#45;&gt;mentor -->
<g id="edge18" class="edge">
<title>p4&#45;&gt;mentor</title>
<path fill="none" stroke="black" stroke-width="1.1" d="M380.46,-206.14C364.67,-169.36 327.76,-97.69 270,-68.71 221.93,-44.59 194.9,-40.69 149,-68.71 107.09,-94.29 88.07,-152.23 80.28,-185.98"/>
<polygon fill="black" stroke="black" stroke-width="1.1" points="77.65,-185.72 78.61,-193.61 82.78,-186.84 77.65,-185.72"/>
<text text-anchor="middle" x="209.5" y="-71.51" font-family="Arial" font-size="9.00">Attempt summary</text>
</g>
<!-- d4 -->
<g id="node10" class="node">
<title>d4</title>
<path fill="none" stroke="black" stroke-width="1.3" d="M693.08,-232.44C693.08,-234.24 674.92,-235.71 652.58,-235.71 630.23,-235.71 612.08,-234.24 612.08,-232.44 612.08,-232.44 612.08,-202.98 612.08,-202.98 612.08,-201.18 630.23,-199.71 652.58,-199.71 674.92,-199.71 693.08,-201.18 693.08,-202.98 693.08,-202.98 693.08,-232.44 693.08,-232.44"/>
<path fill="none" stroke="black" stroke-width="1.3" d="M693.08,-232.44C693.08,-230.63 674.92,-229.16 652.58,-229.16 630.23,-229.16 612.08,-230.63 612.08,-232.44"/>
<text text-anchor="middle" x="652.58" y="-214.91" font-family="Arial" font-size="11.00">D4 Feedback</text>
</g>
<!-- p4&#45;&gt;d4 -->
<g id="edge16" class="edge">
<title>p4&#45;&gt;d4</title>
<path fill="none" stroke="black" stroke-width="1.1" d="M481.98,-216.11C491.62,-215.13 501.29,-214.29 510.58,-213.71 545.62,-211.52 554.48,-212.58 589.58,-213.71 594.32,-213.86 599.26,-214.08 604.19,-214.34"/>
<polygon fill="black" stroke="black" stroke-width="1.1" points="481.45,-213.52 474.26,-216.92 482,-218.74 481.45,-213.52"/>
<polygon fill="black" stroke="black" stroke-width="1.1" points="604.27,-216.97 611.9,-214.77 604.56,-211.73 604.27,-216.97"/>
<text text-anchor="middle" x="550.08" y="-216.51" font-family="Arial" font-size="9.00">Feedback data</text>
</g>
<!-- d2&#45;&gt;p3 -->
<g id="edge10" class="edge">
<title>d2&#45;&gt;p3</title>
<path fill="none" stroke="black" stroke-width="1.1" d="M611.32,-362.14C604.1,-363.47 596.63,-364.73 589.58,-365.71 552.83,-370.83 512.02,-374.64 477.03,-377.35"/>
<polygon fill="black" stroke="black" stroke-width="1.1" points="476.47,-374.76 469.19,-377.94 476.87,-379.99 476.47,-374.76"/>
<text text-anchor="middle" x="550.08" y="-376.51" font-family="Arial" font-size="9.00">Technical evidence</text>
</g>
<!-- d3&#45;&gt;p4 -->
<g id="edge15" class="edge">
<title>d3&#45;&gt;p4</title>
<path fill="none" stroke="black" stroke-width="1.1" d="M614.57,-276.57C606.35,-274.6 597.68,-272.55 589.58,-270.71 550.97,-261.95 508,-252.78 471.96,-245.25"/>
<polygon fill="black" stroke="black" stroke-width="1.1" points="472.26,-242.63 464.38,-243.67 471.19,-247.77 472.26,-242.63"/>
<text text-anchor="middle" x="550.08" y="-273.51" font-family="Arial" font-size="9.00">Attempt history</text>
</g>
</g>
</svg>
